<?xml version="1.0" encoding="UTF-8"?>
<svg width="180" height="48" viewBox="0 0 180 48" xmlns="http://www.w3.org/2000/svg">
  <!-- Background shape -->
  <path d="M24 8C32.8366 8 40 15.1634 40 24C40 32.8366 32.8366 40 24 40C15.1634 40 8 32.8366 8 24C8 15.1634 15.1634 8 24 8Z" fill="#4F46E5" opacity="0.2"/>
  
  <!-- Geometric accent -->
  <path d="M24 12C30.6274 12 36 17.3726 36 24C36 30.6274 30.6274 36 24 36C17.3726 36 12 30.6274 12 24C12 17.3726 17.3726 12 24 12Z" fill="#4F46E5"/>
  
  <!-- Text "Saasfiy" -->
  <text x="56" y="32" font-family="Arial, sans-serif" font-weight="bold" font-size="24" fill="#1F2937">
    Saasfiy
  </text>
  
  <!-- Abstract dots -->
  <circle cx="20" cy="24" r="2" fill="white"/>
  <circle cx="28" cy="24" r="2" fill="white"/>
</svg>
